<?xml version="1.0" encoding="UTF-8"?>
<svg xmlns="http://www.w3.org/2000/svg" id="LOGO" width="161.62" height="145.859" viewBox="0 0 161.62 145.859">
  <path id="Path_49" data-name="Path 49" d="M144.411,24.423c1.392,4.336,2.858,8.671,4.166,13a34,34,0,0,1-7.066,3.315c-.531-1.753-1.148-3.475-1.594-5.228-.659-2.5-2.125-4.824-2.125-7.438V22.149a8.628,8.628,0,0,0,4.622-6.79c0-1.679.074-3.847-1.594-4.782-1.477,0-2.7.978-3.932,1.636-.159,10.339,0,20.679-.074,30.986-2.455,1.435-4.994,2.657-7.523,3.879-.489-2.9-.17-5.844-.2-8.788,0-10.626.074-21.168-.128-31.762.616-.776,1.636-.935,2.5-1.35,3.018-1.148,6.046-3.1,9.436-2.614a8.724,8.724,0,0,1,7.194,5.643C150.34,13.658,148.5,20.3,144.411,24.423Z" transform="translate(6.068 -2.488)" fill="#ea2529"></path>
  <path id="Path_50" data-name="Path 50" d="M102.673,63.1c-3.432,2.008-6.748,4.251-10.095,6.376C86.362,72.948,81.049,77.9,74.513,80.8c2.125-6.546,3.56-13.208,5.526-19.786C81.176,55.776,82.9,50.707,84.2,45.564c.489-2.5,1.477-4.867,1.8-7.364-3.879.616-7.683,1.52-11.561,1.966-.287-4.867-.085-9.776-.085-14.632,6.376-1.923,12.752-3.687,19.053-5.855,3.06-.978,6.131-2.125,9.277-2.858-.616,3.719-2.008,7.236-2.784,10.913-1.955,6.588-3.507,13.251-5.473,19.829-.616,2.5-1.392,4.994-1.966,7.438,3.475-2.125,6.705-4.622,10.222-6.705C102.822,53.247,102.747,58.188,102.673,63.1Z" transform="translate(2.644 -1.59)" fill="#ea2529"></path>
  <path id="Path_51" data-name="Path 51" d="M127.9,26.678a24.079,24.079,0,0,0-3.273-10.711,9.447,9.447,0,0,0-9.362-4.251c-3.719.531-6.822,3.188-8.7,6.376a32.134,32.134,0,0,0-4.378,16.343c0,3.028-.244,6.142.531,9.117.946,3.645,2.008,7.608,4.994,10.222,1.913,1.923,4.824,2.3,7.438,1.966,3.677-.574,6.376-3.475,8.5-6.376C127.781,42.66,128.27,34.4,127.9,26.678ZM117.431,40.407a6.758,6.758,0,0,1-2.412,3.358c-1.307.287-2.125-1.063-2.614-2.125a20.9,20.9,0,0,1-.733-11.115c.489-2.04.893-4.537,2.816-5.728a2.688,2.688,0,0,1,3.443,2A21.327,21.327,0,0,1,117.431,40.407Z" transform="translate(4.389 -1.916)" fill="#ea2529"></path>
  <path id="Path_52" data-name="Path 52" d="M72.715,43.941V83.056c-1.435,1.063-2.858,2.051-4.251,3.071-2.04,1.435-3.879,3.188-6.046,4.452-.085-4.654.117-9.319-.128-13.974-2.455,1.137-4.984,2.2-7.523,3.188-.319-4.782-.074-9.564-.117-14.356,2.529-1.265,5.4-2.125,7.683-3.921.159-1.881,0-3.8.085-5.685a4.251,4.251,0,0,0-1.594-3.879c-1.233-.978-2.943-.414-4.091.4A8.129,8.129,0,0,0,53.386,59.1q0,18.394,0,36.788c0,.818.085,1.806-.733,2.338-2.742,2.125-5.313,4.41-8.1,6.588a21.709,21.709,0,0,1-3.687,2.773,20.818,20.818,0,0,1-.128-2.306V56.2a29.892,29.892,0,0,1,7.077-20.031c2.614-2.827,5.77-5.441,9.564-6.3a19.191,19.191,0,0,1,6.089.085c3.964,1.19,6.705,4.7,8.342,8.384a12.465,12.465,0,0,1,.9,5.6Z" transform="translate(0.543 -0.785)" fill="#ea2529"></path>
  <path id="Path_53" data-name="Path 53" d="M31.76,82.706c2.742,8.788,5.77,17.533,8.5,26.332.414.744-.4,1.19-.85,1.636-4.006,3.358-7.81,6.907-11.615,10.509-1.063-2.816-2.04-5.685-2.9-8.586-1.881-5.313-3.432-10.626-5.313-15.939-.616-2.614-2.125-5.026-2.051-7.768V76.256c2.657-1.509,5.813-2.412,7.725-4.941a14.08,14.08,0,0,0,3.124-7.736,17.47,17.47,0,0,0-1.307-7.9c-.7-1.424-2.008-2.943-3.762-2.7-2.7.329-5.4.861-8.1,1.233-.159,24.122,0,48.19-.085,72.322,0,2.125.128,4.336-.074,6.5-.9,1.19-2.21,2.125-3.188,3.273-2.455,2.858-5.313,5.313-7.81,8.129A11.275,11.275,0,0,1,2.007,146.2a19.88,19.88,0,0,1-.117-2.125V41.445a15.939,15.939,0,0,1,.117-1.913c5.77-.818,11.572-1.35,17.331-2.412a14.569,14.569,0,0,1,9.819,1.307c5.643,3.018,9.479,8.586,11.689,14.5a28.691,28.691,0,0,1,0,16.279C39.624,72.8,38.03,76.437,35.2,79.1,34.226,80.443,32.589,81.3,31.76,82.706Z" transform="translate(-1.89 -0.34)" fill="#ea2529"></path>
  <path id="Path_54" data-name="Path 54" d="M61.367,109.868l-3.677-6.025,1.243-1.063,3.687,6.025Z" transform="translate(1.605 3.794)" fill="#010101"></path>
  <path id="Path_55" data-name="Path 55" d="M66.981,105.128l-4.251-1.806h-.064l2.125,3.624-1.19,1.063L60,101.961l1.009-.882,4.251,1.8h0l-2.125-3.6,1.19-1.063,3.613,6.068Z" transform="translate(1.749 3.507)" fill="#010101"></path>
  <path id="Path_56" data-name="Path 56" d="M69.821,102.7,67.027,97.8l-1.435,1.19-.712-1.222,4.155-3.454.7,1.222-1.424,1.19,2.795,4.909Z" transform="translate(2.055 3.263)" fill="#010101"></path>
  <path id="Path_57" data-name="Path 57" d="M76.575,97.124l-3.624,2.933-3.422-6.2,3.613-2.922.68,1.211-2.306,1.87.7,1.307,2.125-1.764.616,1.063-2.125,1.764.744,1.36,2.327-1.881Z" transform="translate(2.346 3.052)" fill="#010101"></path>
  <path id="Path_58" data-name="Path 58" d="M77.326,96.508,74,90.239l2.189-1.721a1.966,1.966,0,0,1,3.028.17l.191.255a2.338,2.338,0,0,1,0,2.561l2.327,1.509-1.381,1.063-2.125-1.424-.213.181-.563.436,1.158,2.125Zm-1.381-6.121.946,1.806.754-.584a1.137,1.137,0,0,0,.436-1.562,1.062,1.062,0,0,0-.128-.2c-.361-.457-.85-.372-1.286,0Z" transform="translate(2.626 2.861)" fill="#010101"></path>
  <path id="Path_59" data-name="Path 59" d="M85.873,89.955,81.729,87.83h0l1.913,3.762-1.254.946L79.2,86.247l1.063-.808L84.3,87.6h0l-1.9-3.73,1.265-.956L86.851,89.2Z" transform="translate(2.952 2.549)" fill="#010101"></path>
  <path id="Path_60" data-name="Path 60" d="M85.94,81.141l1.668-1.2,4.909,5.037-1.466,1.063-1.063-1.19-1.721,1.243.34,1.721-1.392,1Zm1.456.818.574,2.816,1.222-.882L87.46,81.906Z" transform="translate(3.374 2.363)" fill="#010101"></path>
  <path id="Path_61" data-name="Path 61" d="M93.686,84.269l-2.37-5.143-1.53,1.063-.606-1.275,4.431-3.1.606,1.265-1.53,1.063,2.38,5.132Z" transform="translate(3.577 2.104)" fill="#010101"></path>
  <path id="Path_62" data-name="Path 62" d="M97.1,81.775l-2.89-6.45,1.381-.935,2.89,6.44Z" transform="translate(3.892 2.016)" fill="#010101"></path>
  <path id="Path_63" data-name="Path 63" d="M97.559,76.272a3.06,3.06,0,0,1,1.19-4.027,2.635,2.635,0,0,1,3.91.691,5.749,5.749,0,0,1,.383.691l.383.924a3.05,3.05,0,0,1-1.2,4.038,2.6,2.6,0,0,1-3.857-.669,4.091,4.091,0,0,1-.414-.733Zm1.838,0a4.325,4.325,0,0,0,.308.584,1.243,1.243,0,0,0,1.838.457c.616-.4.776-1.126.329-2.189l-.319-.723a4.091,4.091,0,0,0-.287-.542A1.243,1.243,0,0,0,99.44,73.4c-.6.393-.786,1.063-.34,2.125Z" transform="translate(4.081 1.845)" fill="#010101"></path>
  <path id="Path_64" data-name="Path 64" d="M108.907,74.193l-3.942-2.433H104.9l1.583,3.91-1.328.893-2.646-6.546,1.137-.712,3.91,2.423h.064l-1.573-3.889,1.339-.829,2.646,6.535Z" transform="translate(4.412 1.553)" fill="#010101"></path>
  <path id="Path_65" data-name="Path 65" d="M109.74,65.443,111.5,64.38l4.431,5.462-1.541.914-.956-1.275-1.828,1.063.181,1.743-1.466.871Zm1.371.946.329,2.858,1.3-.776L111.2,66.346Z" transform="translate(4.864 1.389)" fill="#010101"></path>
  <path id="Path_66" data-name="Path 66" d="M120.3,67.372l-3.868,2.189L114.07,62.9l1.456-.818,1.881,5.313,2.4-1.36Z" transform="translate(5.136 1.245)" fill="#010101"></path>
  <path id="Path_67" data-name="Path 67" d="M122.715,66.07l-2.125-6.716,2.327-1.233a2.03,2.03,0,0,1,3,.8,3.029,3.029,0,0,1,.213.542,2.614,2.614,0,0,1-1.541,3.188l-1.063.542.659,2.051Zm-.287-6.291.691,2.125.733-.383a1.19,1.19,0,0,0,.7-1.456,1.147,1.147,0,0,0-.117-.319.893.893,0,0,0-1.318-.361Z" transform="translate(5.544 0.974)" fill="#010101"></path>
  <path id="Path_68" data-name="Path 68" d="M129.217,62.742l-1.6-5.409-1.658.829-.414-1.35,4.739-2.412.4,1.35-1.658.829,1.615,5.409Z" transform="translate(5.854 0.764)" fill="#010101"></path>
  <path id="Path_69" data-name="Path 69" d="M136.054,59.463l-1.52.712-.638-2.348-3.347-3.475,1.626-.765,2.04,2.242h.064l.446-3.432,1.615-.8-.914,5.419Z" transform="translate(6.168 0.588)" fill="#010101"></path>
  <path id="Path_70" data-name="Path 70" d="M144.388,55.581,140.3,57.345l-1.636-6.886L140.2,49.8l1.307,5.526,2.54-1.063Z" transform="translate(6.676 0.475)" fill="#010101"></path>
  <path id="Path_71" data-name="Path 71" d="M145.579,55.166,144.4,49.63l-1.732.712-.3-1.381,4.994-2.04.308,1.381-1.721.7,1.19,5.526Z" transform="translate(6.908 0.295)" fill="#010101"></path>
  <path id="Path_72" data-name="Path 72" d="M150.472,45.7a2.529,2.529,0,0,1,3.507,1.636,4.251,4.251,0,0,1,.191.616c0,.138.117.563.138.7a3.56,3.56,0,0,1-2.529,4l-2.412.9-1.307-6.939Zm.2,5.9.489-.181a2.051,2.051,0,0,0,1.488-2.327,4.688,4.688,0,0,0-.106-.616,4.845,4.845,0,0,0-.149-.468,1.36,1.36,0,0,0-1.955-.829l-.542.213Z" transform="translate(7.264 0.204)" fill="#010101"></path>
</svg>
