<?xml version="1.0" encoding="UTF-8"?><svg id="Layer_1" xmlns="http://www.w3.org/2000/svg" viewBox="0 0 510.99 124.43"><path d="M306.35,120.86l5.46-14.04h2.44l5.6,14.04h-2.54l-1.29-3.35h-5.95l-1.24,3.35h-2.48ZM310.65,115.58h4.76l-2.43-6.11-2.34,6.11h0Z" style="fill:#1a1a1a;"/><path d="M418,121.1c-1.46,0-2.73-.3-3.82-.9s-1.94-1.45-2.54-2.55-.91-2.38-.91-3.86c0-1.07.18-2.05.54-2.94s.86-1.67,1.51-2.32,1.42-1.16,2.31-1.52c.89-.36,1.87-.54,2.93-.54s1.99.13,2.77.4,1.46.65,2.04,1.14l-1.16,1.83c-.44-.41-.96-.71-1.54-.91-.59-.2-1.24-.3-1.95-.3-.78,0-1.49.12-2.12.36s-1.17.58-1.61,1.03c-.44.45-.79.99-1.02,1.62-.24.63-.36,1.34-.36,2.13,0,1.08.21,2.01.64,2.78.42.77,1.03,1.36,1.81,1.76s1.7.61,2.76.61c.7,0,1.38-.11,2.04-.32s1.28-.55,1.86-1.03l1.04,1.9c-.68.53-1.45.93-2.31,1.21-.87.28-1.84.42-2.91.42h0Z" style="fill:#1a1a1a;"/><path d="M431.81,121.1c-1.06,0-2.03-.19-2.93-.56s-1.68-.89-2.35-1.55-1.19-1.44-1.55-2.33c-.37-.89-.55-1.85-.55-2.89s.18-2.01.55-2.9.89-1.67,1.55-2.33c.67-.66,1.45-1.18,2.35-1.54.9-.37,1.88-.55,2.93-.55s2.02.19,2.92.56c.9.38,1.68.9,2.35,1.57s1.19,1.45,1.56,2.33c.37.89.56,1.84.56,2.86s-.19,2-.56,2.89-.89,1.66-1.56,2.33-1.45,1.18-2.35,1.55-1.87.56-2.92.56ZM431.81,118.98c.71,0,1.37-.12,1.98-.37.61-.24,1.15-.59,1.6-1.05.45-.46.81-1.01,1.07-1.65s.39-1.35.39-2.13c0-1.05-.22-1.96-.67-2.74s-1.05-1.38-1.81-1.81-1.62-.64-2.56-.64c-.71,0-1.37.12-1.98.37-.61.24-1.15.6-1.61,1.05s-.82,1-1.07,1.64c-.26.64-.39,1.35-.39,2.14,0,1.05.22,1.96.67,2.74s1.05,1.38,1.81,1.81,1.61.64,2.56.64h0Z" style="fill:#1a1a1a;"/><path d="M441.67,120.8v-14.04h2.18l5.73,9.32h-.87l5.52-9.32h2.14v14.04h-2.2l.03-11.05.43.15-4.77,7.87h-1.65l-4.86-7.87.36-.15.03,11.05h-2.07Z" style="fill:#1a1a1a;"/><path d="M459.71,120.8v-14.04h5.08c1,0,1.88.17,2.64.52.77.34,1.37.84,1.8,1.48.43.65.65,1.42.65,2.33s-.2,1.7-.6,2.34-.99,1.12-1.75,1.46c-.77.33-1.7.5-2.79.5h-2.79v5.41h-2.25.01ZM461.95,113.46h2.82c.91,0,1.61-.19,2.12-.57.5-.38.75-.97.75-1.76s-.26-1.37-.77-1.78-1.21-.62-2.08-.62h-2.84v4.72h0Z" style="fill:#1a1a1a;"/><path d="M470.5,120.8l5.46-14.04h2.44l5.6,14.04h-2.54l-1.29-3.35h-5.95l-1.24,3.35h-2.48ZM474.79,115.52h4.76l-2.43-6.11-2.34,6.11h0Z" style="fill:#1a1a1a;"/><path d="M485.72,120.8v-14.04h2.15l7.09,10.2v-10.2h2.19v14.04h-2.15l-7.08-10.32v10.32h-2.2Z" style="fill:#1a1a1a;"/><path d="M503.77,120.8v-6.06l-4.95-7.98h2.57l3.56,5.81,3.54-5.81h2.5l-4.96,7.99v6.05h-2.26Z" style="fill:#1a1a1a;"/><path d="M353.96,106.01c-.01-.79-.16-1.45-.3-1.94-.03-.1-.11-.18-.21-.21-.5-.17-1.22-.34-2.09-.35-.93,0-1.69.17-2.22.35-.1.03-.18.12-.21.22-.14.52-.28,1.22-.28,2.06s.14,1.53.28,2.04c.03.1.11.19.21.22.49.17,1.22.36,2.1.37.94,0,1.71-.19,2.22-.37.1-.03.17-.11.2-.21.16-.53.32-1.27.31-2.18h-.01Z" style="fill:#f37021;"/><path d="M353.62,123.73h-4.62v-13.52l.22.04c1.38.26,2.81.26,4.19,0l.22-.04v13.52h-.01Z" style="fill:#1a1a1a;"/><path d="M373.92,103.86c-2.1,0-4,.84-5.39,2.21-1.39-1.36-3.29-2.21-5.39-2.21-4.25,0-7.7,3.45-7.7,7.7v12.14h4.62v-12.14c0-1.7,1.38-3.08,3.08-3.08s3.08,1.38,3.08,3.08v12.14h4.62v-12.14c0-1.7,1.38-3.08,3.08-3.08s3.08,1.38,3.08,3.08v12.14h4.62v-12.14c0-4.25-3.45-7.7-7.7-7.7h0Z" style="fill:#1a1a1a;"/><path d="M341.45,111.48h-8.58c-.89,0-1.61-.78-1.49-1.7.1-.76.78-1.3,1.54-1.3h14.33l-.04-.24c-.26-1.39-.26-2.81,0-4.2l.04-.19h-14.38c-3.44,0-6.23,2.85-6.12,6.31.1,3.33,2.92,5.94,6.26,5.94h8.45c.83,0,1.5.67,1.5,1.5s-.67,1.5-1.5,1.5h-13.94v4.63h13.94c3.38,0,6.13-2.75,6.13-6.13s-2.75-6.13-6.13-6.13h-.01Z" style="fill:#1a1a1a;"/><path d="M402.31,108.3c-.53-.97-1.25-1.89-2.03-2.59-.49-.44-1.04-.84-1.62-1.17-1.54-.89-3.34-1.34-5.33-1.34s-3.77.46-5.34,1.36c-.73.42-1.4.92-1.99,1.49-.46.45-1.14,1.2-1.75,2.27-.22.38-.41.77-.58,1.17l-.11.26h5.34l.06-.07c.22-.28.45-.53.71-.75.25-.21.51-.4.79-.56.83-.48,1.8-.72,2.87-.72s2.07.24,2.89.72c.81.48,1.46,1.15,1.93,2,.21.39.38.81.49,1.26h-15.58l-.08.65c-.06.5-.09,1.01-.09,1.52,0,2.04.47,3.89,1.39,5.48.93,1.59,2.25,2.87,3.93,3.78,1.67.91,3.62,1.37,5.8,1.37,1.69,0,3.26-.29,4.64-.86,1.4-.58,2.6-1.43,3.54-2.54l.41-.48-2.89-3.38-.56.62c-.63.69-1.37,1.22-2.2,1.56-.84.35-1.79.53-2.83.53-1.26,0-2.38-.25-3.34-.76-.94-.49-1.68-1.19-2.2-2.07-.18-.31-.33-.64-.45-.99h15.39l.02-.17c.07-.66.09-1.33.07-1.99-.04-1.26-.1-3.36-1.31-5.58v-.02Z" style="fill:#1a1a1a;"/><path d="M271.05,50.96h-4.39v-2.54h11.66v2.54h-4.41v10.75h-2.87v-10.75h.01Z" style="fill:#1a1a1a;"/><path d="M280.09,48.42h5.85c3.8,0,5.11,2.09,5.11,4.22,0,1.56-.78,2.96-2.43,3.67l2.54,5.41h-3.1l-2.05-4.96h-3.04v4.96h-2.89v-13.29h.01ZM285.9,54.65c1.52,0,2.26-.85,2.26-1.98s-.76-1.96-2.24-1.96h-2.94v3.93h2.92,0Z" style="fill:#1a1a1a;"/><path d="M297.03,48.42h3.27l4.81,13.29h-3.08l-.84-2.49h-5.05l-.82,2.49h-3.1l4.81-13.29ZM296.85,57h3.59l-1.79-5.39h-.04l-1.77,5.39h.01Z" style="fill:#1a1a1a;"/><path d="M306.73,48.42h2.73l5.93,8.75v-8.75h2.72v13.29h-2.72l-5.93-8.72v8.72h-2.73v-13.29Z" style="fill:#1a1a1a;"/><path d="M321.5,58.24c1.18.7,2.58,1.2,3.91,1.2,1.42,0,2.17-.59,2.17-1.44,0-2.49-7.18-.82-7.18-5.85,0-2.18,1.8-3.95,4.88-3.95,1.75,0,3.3.42,4.79,1.12l-1.06,2.26c-1.18-.59-2.41-.87-3.59-.87-1.27,0-2.03.61-2.03,1.4,0,2.45,7.18.72,7.18,5.85,0,2.24-1.71,3.99-5.13,3.99-1.99,0-4.03-.67-5.3-1.46l1.37-2.24h-.01Z" style="fill:#1a1a1a;"/><path d="M332.68,48.42h5.56c3.82,0,5.13,2.09,5.13,4.22s-1.33,4.25-5.11,4.25h-2.7v4.82h-2.89v-13.29h.01ZM338.23,54.65c1.56,0,2.28-.85,2.28-1.98s-.74-1.96-2.26-1.96h-2.68v3.93h2.66Z" style="fill:#1a1a1a;"/><path d="M351.86,48.19c4.05,0,6.89,2.85,6.89,6.84s-2.85,6.91-6.89,6.91-6.89-2.89-6.89-6.91,2.87-6.84,6.89-6.84ZM351.86,59.51c2.34,0,3.99-1.77,3.99-4.48s-1.63-4.42-3.99-4.42-3.97,1.77-3.97,4.42,1.65,4.48,3.97,4.48Z" style="fill:#1a1a1a;"/><path d="M360.82,48.42h5.85c3.8,0,5.11,2.09,5.11,4.22,0,1.56-.78,2.96-2.43,3.67l2.54,5.41h-3.1l-2.05-4.96h-3.04v4.96h-2.89v-13.29h.01ZM366.63,54.65c1.52,0,2.26-.85,2.26-1.98s-.76-1.96-2.24-1.96h-2.94v3.93h2.92,0Z" style="fill:#1a1a1a;"/><path d="M377.53,50.96h-4.39v-2.54h11.66v2.54h-4.41v10.75h-2.87v-10.75h.01Z" style="fill:#1a1a1a;"/><path d="M266.41,68.46h9.69v2.51h-6.82v2.92h6.08v2.22h-6.08v3.13h6.89v2.51h-9.76v-13.29Z" style="fill:#1a1a1a;"/><path d="M278.45,68.46h2.73l5.93,8.75v-8.75h2.72v13.29h-2.72l-5.93-8.72v8.72h-2.73v-13.29Z" style="fill:#1a1a1a;"/><path d="M298.85,68.23c1.99,0,3.55.65,4.9,1.63l-1.5,1.94c-.97-.68-2.03-1.14-3.32-1.14-2.49,0-4.08,1.84-4.08,4.37,0,2.75,1.52,4.52,4.08,4.52.89,0,1.71-.21,2.32-.57v-2.66h-3v-1.96h5.62v6.08c-1.33.97-3.06,1.54-5.03,1.54-4.22,0-6.91-2.87-6.91-6.95,0-3.84,2.7-6.8,6.93-6.8h0Z" style="fill:#1a1a1a;"/><path d="M306.33,68.46h2.89v13.29h-2.89v-13.29Z" style="fill:#1a1a1a;"/><path d="M311.78,68.46h2.73l5.93,8.75v-8.75h2.72v13.29h-2.72l-5.93-8.72v8.72h-2.73v-13.29Z" style="fill:#1a1a1a;"/><path d="M325.75,68.46h9.69v2.51h-6.82v2.92h6.08v2.22h-6.08v3.13h6.89v2.51h-9.76v-13.29Z" style="fill:#1a1a1a;"/><path d="M337.79,68.46h9.68v2.51h-6.82v2.92h6.08v2.22h-6.08v3.13h6.89v2.51h-9.76v-13.29h.01Z" style="fill:#1a1a1a;"/><path d="M349.83,68.46h5.85c3.8,0,5.11,2.09,5.11,4.22,0,1.56-.78,2.96-2.43,3.67l2.54,5.41h-3.1l-2.05-4.96h-3.04v4.96h-2.89v-13.29h.01ZM355.64,74.69c1.52,0,2.26-.85,2.26-1.98s-.76-1.96-2.24-1.96h-2.94v3.93h2.92,0Z" style="fill:#1a1a1a;"/><path d="M363.12,68.46h2.89v13.29h-2.89v-13.29Z" style="fill:#1a1a1a;"/><path d="M368.57,68.46h2.74l5.92,8.75v-8.75h2.72v13.29h-2.72l-5.92-8.72v8.72h-2.74v-13.29Z" style="fill:#1a1a1a;"/><path d="M388.96,68.23c1.99,0,3.55.65,4.9,1.63l-1.5,1.94c-.97-.68-2.03-1.14-3.32-1.14-2.49,0-4.08,1.84-4.08,4.37,0,2.75,1.52,4.52,4.08,4.52.89,0,1.71-.21,2.32-.57v-2.66h-3v-1.96h5.62v6.08c-1.33.97-3.06,1.54-5.03,1.54-4.22,0-6.91-2.87-6.91-6.95,0-3.84,2.7-6.8,6.93-6.8h0Z" style="fill:#1a1a1a;"/><path d="M401.78,78.28c1.18.7,2.58,1.2,3.91,1.2,1.42,0,2.17-.59,2.17-1.44,0-2.49-7.18-.82-7.18-5.85,0-2.18,1.8-3.95,4.88-3.95,1.75,0,3.3.42,4.79,1.12l-1.06,2.26c-1.18-.59-2.41-.87-3.59-.87-1.27,0-2.03.61-2.03,1.4,0,2.45,7.18.72,7.18,5.85,0,2.24-1.71,3.99-5.13,3.99-1.99,0-4.03-.67-5.3-1.46l1.37-2.24h-.01Z" style="fill:#1a1a1a;"/><path d="M419.19,68.23c4.04,0,6.89,2.85,6.89,6.84s-2.85,6.91-6.89,6.91-6.89-2.89-6.89-6.91,2.87-6.84,6.89-6.84ZM419.19,79.55c2.34,0,3.99-1.77,3.99-4.48s-1.63-4.42-3.99-4.42-3.97,1.77-3.97,4.42,1.65,4.48,3.97,4.48Z" style="fill:#1a1a1a;"/><path d="M428.15,68.46h2.89v10.81h6.61v2.49h-9.5v-13.29h0Z" style="fill:#1a1a1a;"/><path d="M439.24,68.46h2.91v8.24c0,1.8,1.1,2.83,2.72,2.83s2.72-1.03,2.72-2.83v-8.24h2.89v8.24c0,3.55-2.34,5.28-5.6,5.28s-5.62-1.73-5.62-5.28v-8.24h-.02Z" style="fill:#1a1a1a;"/><path d="M456.58,71.01h-4.39v-2.54h11.66v2.54h-4.41v10.75h-2.87v-10.75h.01Z" style="fill:#1a1a1a;"/><path d="M465.61,68.46h2.89v13.29h-2.89v-13.29Z" style="fill:#1a1a1a;"/><path d="M477.44,68.23c4.04,0,6.89,2.85,6.89,6.84s-2.85,6.91-6.89,6.91-6.89-2.89-6.89-6.91,2.87-6.84,6.89-6.84ZM477.44,79.55c2.34,0,3.99-1.77,3.99-4.48s-1.63-4.42-3.99-4.42-3.97,1.77-3.97,4.42,1.65,4.48,3.97,4.48Z" style="fill:#1a1a1a;"/><path d="M486.41,68.46h2.74l5.92,8.75v-8.75h2.72v13.29h-2.72l-5.92-8.72v8.72h-2.74v-13.29Z" style="fill:#1a1a1a;"/><path d="M501.18,78.28c1.18.7,2.58,1.2,3.91,1.2,1.42,0,2.17-.59,2.17-1.44,0-2.49-7.18-.82-7.18-5.85,0-2.18,1.8-3.95,4.88-3.95,1.75,0,3.3.42,4.79,1.12l-1.06,2.26c-1.18-.59-2.41-.87-3.59-.87-1.27,0-2.03.61-2.03,1.4,0,2.45,7.18.72,7.18,5.85,0,2.24-1.71,3.99-5.13,3.99-1.99,0-4.03-.67-5.3-1.46l1.37-2.24h-.01Z" style="fill:#1a1a1a;"/><path d="M196.93,59.53h25.02c3.92,0,6.8-1.06,6.81-3.3.02-8.88-39.79-1.37-39.79-30.82,0-13.71,11.41-25.29,31.48-25.29,10.38,0,14.47.06,26.03.06l-.08,22.18h-25.02c-4.89,0-6.34,1.02-6.34,3.46,0,8.65,39.89.71,39.89,30.49,0,14.05-11.19,25.4-33.22,25.4-12.57,0-26.92.09-38.01.02l13.22-22.2h0Z" style="fill:#1a1a1a;"/><polygon points="176.43 31.5 157.17 31.5 145.77 50.52 176.43 50.52 176.43 31.5" style="fill:#f6921e;"/><polygon points="140.45 59.49 126.99 81.77 177.58 81.77 190.95 59.49 140.45 59.49" style="fill:#f6921e;"/><polygon points="175.84 .1 162.6 22.42 183.87 22.42 183.87 .1 175.84 .1" style="fill:#f6921e;"/><path d="M48.88,81.78h62.12C54.47,48.21,42.67,21.17,77.11,0,10.84,19.67-5.36,48.33,1.43,81.78h44.45c-1.96-3.71-3.64-7.42-5.03-11.1h2.82c1.47,3.64,3.19,7.34,5.21,11.1ZM36.15,46.31h1.96c.07,2.6.34,5.27.8,7.99h-2.27c-.35-2.71-.52-5.37-.48-7.99h0ZM63.18,6.02c-.51.27-1.03.52-1.52.8h-.35c.52-.27,1.06-.53,1.6-.8h.27ZM63.87,5.54c.41-.2.83-.39,1.25-.58h.15c-.39.19-.79.38-1.18.58,0,0-.22,0-.22,0ZM60.75,7.36c-.39.23-.78.46-1.16.69h-.44c.4-.23.81-.46,1.22-.69h.39-.01ZM58.61,8.65c-.4.25-.78.51-1.16.77h-.53c.4-.26.8-.52,1.21-.77h.49-.01ZM56.17,10.29c-.66.47-1.31.95-1.93,1.44h-.66c.65-.49,1.31-.97,1.99-1.44h.6ZM52.94,12.81c-.8.67-1.56,1.36-2.29,2.06h-.79c.76-.7,1.55-1.39,2.38-2.06h.71,0ZM49.38,16.13c-.88.91-1.7,1.85-2.47,2.81h-.94c.8-.96,1.65-1.9,2.56-2.81h.85ZM45.78,20.42c-.88,1.21-1.7,2.44-2.42,3.72h-1.13c.77-1.27,1.63-2.51,2.56-3.72h1-.01ZM42.16,26.4c-.95,1.95-1.72,3.98-2.33,6.06h-1.42c.69-2.08,1.53-4.11,2.55-6.06h1.21-.01ZM39.03,35.56c-.49,2.35-.78,4.78-.89,7.27h-1.83c.2-2.48.6-4.91,1.18-7.27h1.54ZM66.14,4.55h-.09c.49-.21.96-.44,1.47-.65-.47.21-.92.43-1.38.65ZM39.5,66.85c-.96-2.98-1.72-5.94-2.28-8.86h2.42c.66,2.9,1.52,5.85,2.58,8.86h-2.72Z" style="fill:#f6921e;"/><polygon points="86.62 .1 86.62 22.42 113.71 22.42 113.71 81.77 121.02 81.79 139.73 50.53 139.73 22.42 156.41 22.42 169.87 .1 86.62 .1" style="fill:#1a1a1a;"/></svg>