<?xml version="1.0" encoding="UTF-8"?>
<svg id="Layer_1" data-name="Layer 1" xmlns="http://www.w3.org/2000/svg" version="1.1" viewBox="0 0 668 180">
  <defs>
    <style>
      .cls-1 {
        fill: #0057b7;
        fill-rule: evenodd;
        stroke-width: 0px;
      }
    </style>
  </defs>
  <polygon id="Fill-1" class="cls-1" points="179 150 182 150 182 30 179 30 179 150"/>
  <g>
    <path id="Fill-2" class="cls-1" d="M222.614,93.571h8.382l-4.239-12.618-4.14301,12.618ZM232.90401,99.718h-12.19499l-2.664,8.192h-7.90601l12.23999-33.91h9.237l12.287,33.909h-8.239l-2.75999-8.19099Z"/>
    <polyline id="Fill-3" class="cls-1" points="262.52399 107.909 254.666 107.909 254.666 74 278.62201 74 277.384 80.617 262.52399 80.617 262.52399 88.049 276.66901 88.049 275.431 94.669 262.52399 94.669 262.52399 107.909"/>
    <polyline id="Fill-4" class="cls-1" points="318.103 74 316.81699 80.617 306.625 80.617 306.625 107.909 298.767 107.909 298.767 80.617 287.43201 80.617 288.67099 74 318.103 74"/>
    <polyline id="Fill-5" class="cls-1" points="351.01199 93.955 336.86801 93.955 336.86801 101.289 354.06 101.289 352.77399 107.909 329.00699 107.909 329.00699 74 353.772 74 352.53601 80.617 336.86801 80.617 336.86801 87.335 352.25101 87.335 351.01199 93.955"/>
    <path id="Fill-6" class="cls-1" d="M384.39499,84.859c0-.889-.095-1.627-.28601-2.215s-.48901-1.048-.905-1.381c-.41-.333-.95999-.564-1.64301-.691s-1.53201-.191-2.548-.191h-5.763v9.43h5.763c1.01599,0,1.86499-.063,2.548-.18999s1.233-.36501,1.64301-.714c.41501-.35201.71399-.818.905-1.405.19-.58701.28601-1.341.28601-2.262v-.38102ZM392.11301,85.668c0,2.47701-.51599,4.453-1.548,5.929-1.035,1.476-2.53201,2.564-4.50299,3.262l7.67001,13.049h-8.62l-6.47699-11.906h-5.384v11.906h-7.66501v-33.908h13.668c2.28601,0,4.23599.191,5.858.572,1.61899.381,2.94501.984,3.974,1.81001,1.03201.826,1.79099,1.897,2.289,3.212.492,1.32.73801,2.916.73801,4.789v1.285h-.00003v-.00002Z"/>
    <polyline id="Fill-7" class="cls-1" points="418.30701 98.432 411.78201 85.811 411.78201 107.909 404.39999 107.909 404.39999 74 412.78201 74 421.64099 91.28799 430.21301 74 438.548 74 438.548 107.909 431.16599 107.909 431.16599 85.573 424.64401 98.432 418.30701 98.432"/>
    <path id="Fill-8" class="cls-1" d="M461.79199,93.571h8.38199l-4.241-12.618-4.14099,12.618ZM472.07599,99.718h-12.19199l-2.66699,8.192h-7.90601l12.23999-33.91h9.23901l12.28699,33.909h-8.23901l-2.76199-8.19099Z"/>
    <path id="Fill-9" class="cls-1" d="M512.65302,84.859c0-.889-.09503-1.627-.28601-2.215-.19-.587-.495-1.048-.905-1.381-.41299-.333-.95999-.564-1.64301-.691s-1.53201-.191-2.548-.191h-5.763v9.43h5.763c1.01599,0,1.86499-.063,2.548-.18999s1.23001-.36501,1.64301-.714c.41-.35201.71402-.818.905-1.405.19098-.58701.28601-1.341.28601-2.262v-.38102ZM520.36804,85.668c0,2.47701-.51599,4.453-1.54803,5.929s-2.53204,2.564-4.50104,3.262l7.66803,13.049h-8.62l-6.48001-11.906h-5.379v11.906h-7.668v-33.908h13.668c2.28601,0,4.23599.191,5.85797.572,1.61902.381,2.94507.984,3.97705,1.81001,1.02893.826,1.79095,1.897,2.28601,3.212.48901,1.32.73798,2.916.73798,4.789v1.285h.00104v-.00002Z"/>
    <polyline id="Fill-10" class="cls-1" points="540.51099 87.95399 552.18201 74 561.18298 74 547.51501 90.05 562.802 107.909 552.70599 107.909 540.51099 93.28799 540.51099 107.909 532.65503 107.909 532.65503 74 540.51099 74 540.51099 87.95399"/>
    <polyline id="Fill-11" class="cls-1" points="594.90198 93.955 580.75403 93.955 580.75403 101.289 597.94702 101.289 596.664 107.909 572.89899 107.909 572.89899 74 597.664 74 596.42297 80.617 580.75403 80.617 580.75403 87.335 596.14001 87.335 594.90198 93.955"/>
    <polyline id="Fill-12" class="cls-1" points="638 74 636.71399 80.617 626.52197 80.617 626.52197 107.909 618.664 107.909 618.664 80.617 607.32898 80.617 608.56799 74 638 74"/>
  </g>
  <path id="Fill-14" class="cls-1" d="M124.748,89.783v-7.337h-14.677v-18.561h27.40001c4.26799,7.744,6.702,16.645,6.702,26.115s-2.43201,18.37-6.702,26.115h-69.38l24.064-59.569h-44.77c9.919-12.615,25.318-20.72,42.611-20.72s32.695,8.104,42.61099,20.72h-38.72301v54.174h16.187v-20.937h14.677ZM42.525,63.885h29.21l-24.069,59.56701h84.942c-9.917,12.618-25.318,20.71999-42.611,20.71999-29.916-.00101-54.171-24.253-54.171-54.172,0-9.47,2.432-18.37,6.699-26.115ZM150,90c0-33.137-26.863-60-60-60s-60,26.863-60,60,26.863,60,60,60,60-26.863,60-60Z"/>
</svg>